Coordinates
version=1
nRows=29
nColumns=24
inDegrees=yes

Units are S.I. units (second, meters, Newtons, ...)
Angles are in degrees.

endheader
time	pelvis_tilt	pelvis_list	pelvis_rotation	pelvis_tx	pelvis_ty	pelvis_tz	hip_flexion_r	hip_adduction_r	hip_rotation_r	knee_angle_r	ankle_angle_r	subtalar_angle_r	mtp_angle_r	hip_flexion_l	hip_adduction_l	hip_rotation_l	knee_angle_l	ankle_angle_l	subtalar_angle_l	mtp_angle_l	lumbar_extension	lumbar_bending	lumbar_rotation
      4.33500000	     -7.06688213	      3.38649249	    -13.15643128	     -2.40501447	     -0.02641839	      0.46041934	     -7.51413979	     -1.74039491	      8.26309024	    -13.44008712	      5.60384098	      1.83829165	      6.49351159	     27.82190480	     -3.22384349	     -5.17146198	     -4.02162794	     -5.68831604	      6.56091298	     13.65968039	      5.65992596	     -1.37957789	     10.48702116
      4.34000000	     -7.09147068	      3.53504500	    -13.23935211	     -2.39792265	     -0.02691075	      0.46014952	     -7.60339965	     -2.04182313	      8.28431923	    -14.00765664	      5.31973098	      2.18108895	      6.87344607	     27.87673485	     -3.05499091	     -5.12519547	     -4.62518109	     -5.54185021	      6.92267955	     13.66257592	      5.85859633	     -1.52640440	     10.47436974
      4.34500000	     -7.06924271	      3.63476671	    -13.30767362	     -2.39081836	     -0.02734040	      0.45987087	     -7.74520854	     -2.28297497	      8.41986983	    -14.61546421	      4.93560033	      2.35621882	      6.96116295	     27.85275916	     -2.90040621	     -4.89226180	     -5.25168002	     -5.54823247	      7.00905715	     13.76294422	      5.98962111	     -1.64110538	     10.46875485
      4.35000000	     -7.14234739	      3.83464119	    -13.29304552	     -2.38338259	     -0.02787881	      0.45941416	     -7.74312866	     -2.63790776	      8.19298378	    -15.25412570	      4.59080374	      2.85427281	      7.62026889	     27.96122895	     -2.61614470	     -4.89208917	     -5.96378731	     -5.45694114	      7.42180666	     13.88909453	      6.28603842	     -1.82960711	     10.40016851
      4.35500000	     -7.17971430	      3.93445776	    -13.30942268	     -2.37611684	     -0.02833687	      0.45893428	     -7.75904664	     -2.88521954	      8.12430572	    -15.94286735	      4.12569286	      3.21678004	      8.20735166	     28.01804292	     -2.42401431	     -4.81363891	     -6.71873741	     -5.46515233	      7.72532763	     13.96086166	      6.48604154	     -1.91793538	     10.41190006
      4.36000000	     -7.19216602	      4.08239092	    -13.31051192	     -2.36867689	     -0.02874519	      0.45851357	     -7.77928939	     -3.16893000	      8.06169748	    -16.68729241	      3.54976875	      3.42200602	      8.50790536	     28.00021615	     -2.16056109	     -4.72569178	     -7.40014687	     -5.63068188	      7.89060682	     14.05302038	      6.69677307	     -2.07935663	     10.41783064
      4.36500000	     -7.26754195	      4.25791764	    -13.26461995	     -2.36118889	     -0.02919237	      0.45792791	     -7.69674083	     -3.48932655	      7.89942640	    -17.45528153	      2.99684383	      3.84739480	      9.26648865	     28.04942630	     -1.85666949	     -4.67446814	     -8.06342581	     -5.93802180	      8.15776518	     14.21928087	      6.97611067	     -2.24132225	     10.41903813
      4.37000000	     -7.31870668	      4.43489545	    -13.23136826	     -2.35368505	     -0.02955532	      0.45737003	     -7.59269426	     -3.80545215	      7.73989396	    -18.29612677	      2.30090038	      4.14046425	      9.92824924	     28.03318131	     -1.54585502	     -4.62630204	     -8.64907258	     -6.40359628	      8.32884237	     14.37273001	      7.22936935	     -2.41728449	     10.44608891
      4.37500000	     -7.36794263	      4.63217249	    -13.18996792	     -2.34617866	     -0.02985399	      0.45678399	     -7.43727435	     -4.14418610	      7.54257991	    -19.20432585	      1.52635438	      4.45883427	     10.64841728	     27.99290493	     -1.20867204	     -4.59304999	     -9.16396206	     -7.03113059	      8.44773499	     14.53254061	      7.48229459	     -2.61499027	     10.48945406
      4.38000000	     -7.41968288	      4.85890298	    -13.14793437	     -2.33866731	     -0.03007954	      0.45616213	     -7.21809519	     -4.51785100	      7.30854122	    -20.17953717	      0.65392999	      4.78371593	     11.47442035	     27.93324274	     -0.84017744	     -4.55399651	     -9.60401447	     -7.80758369	      8.47271538	     14.67937810	      7.74163740	     -2.83911805	     10.53795952
      4.38500000	     -7.45205569	      5.04161271	    -13.10464168	     -2.33127794	     -0.03018677	      0.45545331	     -6.96192871	     -4.85731840	      7.03747186	    -21.20869633	     -0.38220125	      5.09743559	     12.54497083	     27.84089348	     -0.50009355	     -4.41631907	    -10.00151010	     -8.71918450	      8.27519387	     14.82065924	      7.94455933	     -3.01491105	     10.61113934
      4.39000000	     -7.48474818	      5.30669622	    -13.04840265	     -2.32380810	     -0.03020577	      0.45479574	     -6.65017316	     -5.27369594	      6.76912518	    -22.30013350	     -1.51748906	      5.36430320	     13.47878147	     27.75174474	     -0.08011759	     -4.32129514	    -10.38299236	     -9.61797888	      8.06051759	     14.78465872	      8.17857815	     -3.28753088	     10.69152714
      4.39500000	     -7.51052762	      5.57838278	    -12.98680058	     -2.31637642	     -0.03013421	      0.45410455	     -6.27986144	     -5.69894517	      6.48215481	    -23.46286564	     -2.80562770	      5.59637972	     14.48789133	     27.66549251	      0.35607498	     -4.15582691	    -10.78985260	    -10.45111998	      7.69661797	     14.56430114	      8.40249883	     -3.56514566	     10.77158425
      4.40000000	     -7.53399468	      5.86209345	    -12.92364179	     -2.30897929	     -0.02997591	      0.45343664	     -5.85123551	     -6.13135504	      6.20601456	    -24.68363061	     -4.24597448	      5.77317962	     15.54953721	     27.59353036	      0.80793734	     -3.94941507	    -11.24640653	    -11.15889121	      7.20583380	     14.12487786	      8.61833313	     -3.86169862	     10.86566280
      4.40500000	     -7.54746027	      6.14235208	    -12.86182409	     -2.30162661	     -0.02974220	      0.45277233	     -5.36975985	     -6.55406791	      5.95538846	    -25.96915888	     -5.86196032	      5.85677114	     16.64539186	     27.52885305	      1.26415830	     -3.69946689	    -11.77076336	    -11.65812777	      6.62524520	     13.48238465	      8.81484522	     -4.15928081	     10.94731720
      4.41000000	     -7.56244670	      6.41403295	    -12.80076703	     -2.29431789	     -0.02944760	      0.45213165	     -4.83101602	     -6.95442605	      5.74845466	    -27.30695356	     -7.64299380	      5.85459865	     17.74982037	     27.48386137	      1.71613709	     -3.43299010	    -12.36797208	    -11.94539998	      5.98661647	     12.65295914	      9.00134739	     -4.44901512	     11.04882669
      4.41500000	     -7.57275295	      6.66841825	    -12.73551199	     -2.28707516	     -0.02911458	      0.45151719	     -4.24004400	     -7.31839070	      5.58566554	    -28.70419573	     -9.58346335	      5.72965714	     18.85746313	     27.45008178	      2.15796416	     -3.15966385	    -13.03653859	    -11.98255920	      5.36040805	     11.70392035	      9.16587681	     -4.72558145	     11.13797432
      4.42000000	     -7.57749843	      6.90521604	    -12.66637140	     -2.27991602	     -0.02877110	      0.45092412	     -3.59424177	     -7.64353929	      5.46553039	    -30.17029577	    -11.64982398	      5.48039806	     19.94368122	     27.42481068	      2.58774507	     -2.90764741	    -13.76687457	    -11.77155381	      4.80875842	     10.71149331	      9.30375680	     -4.98672253	     11.21277311
      4.42500000	     -7.58637425	      7.12949945	    -12.60892887	     -2.27282177	     -0.02840049	      0.45041992	     -2.88345955	     -7.92436094	      5.42414907	    -31.70910170	    -13.82301618	      5.14241095	     20.83317951	     27.38662762	      2.99781600	     -2.66946815	    -14.48875834	    -11.41701537	      4.31859527	      9.80383787	      9.43493677	     -5.24592986	     11.30036924
      4.43000000	     -7.59563673	      7.35110801	    -12.54201536	     -2.26580876	     -0.02804459	      0.44994974	     -2.10934187	     -8.17545102	      5.40930908	    -33.32967228	    -16.05216975	      4.68855750	     21.57077396	     27.33855710	      3.40909442	     -2.44787296	    -15.19945601	    -10.94101121	      3.91583496	      9.01960640	      9.54981867	     -5.50326552	     11.36984251
      4.43500000	     -7.62780714	      7.58706766	    -12.42620595	     -2.25891192	     -0.02776961	      0.44946947	     -1.24912856	     -8.42135494	      5.34510201	    -35.01854907	    -18.29417844	      4.09137175	     22.46557753	     27.32582070	      3.84066426	     -2.27100834	    -15.93647210	    -10.24523288	      3.78798795	      8.21478545	      9.66292059	     -5.78847873	     11.37503532
      4.44000000	     -7.59042680	      7.80402643	    -12.39546291	     -2.25212287	     -0.02740876	      0.44914658	     -0.37763554	     -8.62317817	      5.39789148	    -36.83784073	    -20.49743352	      3.41687586	     22.57873081	     27.16029082	      4.24369942	     -2.07111384	    -16.50295824	     -9.74483115	      3.39099254	      7.83820954	      9.69570643	     -6.05544210	     11.45601373
      4.44500000	     -7.61131071	      8.03899392	    -12.31203311	     -2.24542578	     -0.02716042	      0.44878442	      0.61566478	     -8.82491059	      5.36136108	    -38.72323394	    -22.68729934	      2.53168140	     22.69818356	     27.04520281	      4.66871533	     -1.87808907	    -17.03735377	     -9.16612068	      3.13665494	      7.48532391	      9.77087225	     -6.33975908	     11.48186085
      4.45000000	     -7.61516603	      8.30606877	    -12.22229669	     -2.23881193	     -0.02694681	      0.44846046	      1.65429955	     -9.05660391	      5.28321615	    -40.67831252	    -24.78561484	      1.46418660	     22.60536098	     26.88154992	      5.12944380	     -1.71007255	    -17.48938338	     -8.59709930	      2.92494693	      7.22542355	      9.82104966	     -6.66503924	     11.48719305
      4.45500000	     -7.62578498	      8.58832535	    -12.12415334	     -2.23228074	     -0.02678744	      0.44814741	      2.75406032	     -9.30083896	      5.15947703	    -42.68581320	    -26.78183988	      0.16736992	     22.28252857	     26.69003276	      5.60850026	     -1.52707496	    -17.86093180	     -8.03862765	      2.72227916	      7.02151319	      9.86797532	     -7.00357840	     11.47989678
      4.46000000	     -7.63326157	      8.89613831	    -12.01876324	     -2.22583598	     -0.02667356	      0.44783691	      3.89928282	     -9.57358702	      4.99953190	    -44.73564044	    -28.61511317	     -1.37651776	     21.70534377	     26.46277319	      6.11873627	     -1.33861225	    -18.14582746	     -7.52165416	      2.51070865	      6.86123277	      9.90252400	     -7.36911647	     11.43597731
      4.46500000	     -7.62084759	      9.22228539	    -11.91400757	     -2.21944420	     -0.02658279	      0.44750989	      5.05731273	     -9.87718072	      4.81182030	    -46.79790785	    -30.25379998	     -3.15691860	     20.86609424	     26.18610265	      6.65837248	     -1.16373634	    -18.35602100	     -7.06152679	      2.22688201	      6.73378153	      9.91215359	     -7.75240506	     11.36285432
      4.47000000	     -7.61869656	      9.54509787	    -11.78723804	     -2.21308870	     -0.02651010	      0.44711689	      6.24298094	    -10.19242623	      4.57024483	    -48.85180731	    -31.69214860	     -5.15260883	     19.74970170	     25.88226238	      7.20797473	     -0.94699935	    -18.48753249	     -6.64018951	      1.93721824	      6.63312637	      9.92271587	     -8.12354408	     11.28469236
      4.47500000	     -7.58821481	      9.87887936	    -11.66869066	     -2.20677804	     -0.02643172	      0.44670252	      7.41096498	    -10.53011219	      4.34039221	    -50.87960917	    -32.84124988	     -7.34672984	     18.40950071	     25.51803591	      7.77876943	     -0.73207857	    -18.54434600	     -6.28060643	      1.58033122	      6.54332783	      9.89984273	     -8.50293441	     11.16841871
